HIERARCHY
ROOT root
{
	OFFSET 0.000000 0.000000 0.000000
	CHANNELS 6 Xposition Yposition Zposition Zrotation Yrotation Xrotation
	JOINT lhip
	{
		OFFSET 0.058581 -0.082280 -0.017664
		CHANNELS 3 Zrotation Yrotation Xrotation
		JOINT lknee
		{
			OFFSET 0.043451 -0.386469 0.008037
			CHANNELS 3 Zrotation Yrotation Xrotation
			JOINT lankle
			{
				OFFSET -0.014790 -0.426874 -0.037428
				CHANNELS 3 Zrotation Yrotation Xrotation
				JOINT ltoe
				{
					OFFSET 0.041054 -0.060286 0.122042
					CHANNELS 3 Zrotation Yrotation Xrotation
					End Site
					{
						OFFSET 0.000000 0.000000 0.000000
					}
				}
			}
		}
	}
	JOINT rhip
	{
		OFFSET -0.060310 -0.090513 -0.013543
		CHANNELS 3 Zrotation Yrotation Xrotation
		JOINT rknee
		{
			OFFSET -0.043257 -0.383688 -0.004843
			CHANNELS 3 Zrotation Yrotation Xrotation
			JOINT rankle
			{
				OFFSET 0.019056 -0.420046 -0.034562
				CHANNELS 3 Zrotation Yrotation Xrotation
				JOINT rtoe
				{
					OFFSET -0.034840 -0.062106 0.130323
					CHANNELS 3 Zrotation Yrotation Xrotation
					End Site
					{
						OFFSET 0.000000 0.000000 0.000000
					}
				}
			}
		}
	}
	JOINT lowerback
	{
		OFFSET 0.004439 0.124404 -0.038385
		CHANNELS 3 Zrotation Yrotation Xrotation
		JOINT upperback
		{
			OFFSET 0.004488 0.137956 0.026820
			CHANNELS 3 Zrotation Yrotation Xrotation
			JOINT chest
			{
				OFFSET -0.002265 0.056032 0.002855
				CHANNELS 3 Zrotation Yrotation Xrotation
				JOINT lowerneck
				{
					OFFSET -0.013390 0.211636 -0.033468
					CHANNELS 3 Zrotation Yrotation Xrotation
					JOINT upperneck
					{
						OFFSET 0.010113 0.088937 0.050410
						CHANNELS 3 Zrotation Yrotation Xrotation
						End Site
						{
							OFFSET 0.000000 0.000000 0.000000
						}
					}
				}
				JOINT lclavicle
				{
					OFFSET 0.071702 0.114000 -0.018898
					CHANNELS 3 Zrotation Yrotation Xrotation
					JOINT lshoulder
					{
						OFFSET 0.122921 0.045205 -0.019046
						CHANNELS 3 Zrotation Yrotation Xrotation
						JOINT lelbow
						{
							OFFSET 0.255332 -0.015649 -0.022946
							CHANNELS 3 Zrotation Yrotation Xrotation
							JOINT lwrist
							{
								OFFSET 0.265709 0.012698 -0.007375
								CHANNELS 3 Zrotation Yrotation Xrotation
								End Site
								{
									OFFSET 0.000000 0.000000 0.000000
								}
							}
						}
					}
				}
				JOINT rclavicle
				{
					OFFSET -0.082954 0.112472 -0.023707
					CHANNELS 3 Zrotation Yrotation Xrotation
					JOINT rshoulder
					{
						OFFSET -0.113228 0.046853 -0.008472
						CHANNELS 3 Zrotation Yrotation Xrotation
						JOINT relbow
						{
							OFFSET -0.260127 -0.014369 -0.031269
							CHANNELS 3 Zrotation Yrotation Xrotation
							JOINT rwrist
							{
								OFFSET -0.269108 0.006794 -0.006027
								CHANNELS 3 Zrotation Yrotation Xrotation
								End Site
								{
									OFFSET 0.000000 0.000000 0.000000
								}
							}
						}
					}
				}
			}
		}
	}
}
MOTION
Frames: 13
Frame Time: 0.033333
-0.813360 0.761016 0.886803 87.260968 -1.567957 83.336467 8.404081 1.342750 -21.473917 -17.100169 -3.613007 51.643206 5.644064 12.854534 -29.931388 0.000000 -0.000000 0.000000 -7.523953 -4.440875 -20.886078 4.562010 -0.131573 53.533395 -1.406253 -11.094635 -30.423040 0.000000 -0.000000 0.000000 -2.250043 1.207129 17.476299 0.824397 -3.965962 -4.240237 1.115363 3.052690 -0.873123 -2.555767 0.532686 0.046619 -1.541774 1.919465 5.541977 -7.901351 -17.837430 -11.245608 -14.762369 -37.073397 0.106444 18.653375 -50.063462 0.612654 38.843859 -22.625542 7.748678 12.635590 24.929130 -4.044822 10.060057 29.012041 -9.171866 -24.353988 58.033368 -8.088187 -37.121558 25.415592 6.261155 
-0.813929 0.761066 0.886691 87.290028 -1.525936 83.300077 8.450765 1.293722 -21.540163 -17.106488 -3.606987 51.743589 5.595755 12.796258 -29.942972 0.000000 -0.000000 0.000000 -7.485318 -4.424515 -20.913582 4.485727 -0.207340 53.612014 -1.466700 -10.980040 -30.404418 0.000000 -0.000000 0.000000 -2.282087 1.251938 17.471485 0.941411 -4.005561 -4.069545 1.129914 3.068457 -0.883118 -2.523045 0.528168 -0.103500 -1.590190 1.910085 5.678312 -7.792557 -17.717338 -11.382933 -15.015377 -37.226002 0.282218 19.106669 -49.840868 0.456832 38.576315 -22.599147 7.693140 12.603053 24.861078 -4.224393 10.189973 29.091221 -8.931546 -24.685629 58.007936 -8.340775 -36.989433 25.289550 6.135051 
-0.814142 0.761186 0.886516 87.265600 -1.548970 83.237198 8.452167 1.334474 -21.490288 -17.077526 -3.533470 51.763747 5.605037 12.729138 -29.982790 0.000000 -0.000000 0.000000 -7.507827 -4.438729 -20.912376 4.442341 -0.181626 53.673480 -1.440654 -10.920004 -30.436681 0.000000 -0.000000 0.000000 -2.297701 1.302262 17.491919 0.948264 -3.988413 -3.993111 1.120307 3.032322 -0.864605 -2.484084 0.599106 -0.045117 -1.652630 1.835092 5.555610 -7.812551 -17.566748 -11.457160 -14.967535 -37.411641 0.185887 18.866153 -49.762431 0.422390 38.648761 -22.774468 7.732576 12.706575 24.831338 -4.214168 10.226819 29.211801 -8.913349 -24.860804 57.941988 -8.550288 -37.317545 25.419996 6.008189 
-0.814311 0.761583 0.886341 87.394135 -1.573988 83.239280 8.410123 1.320957 -21.579279 -17.100341 -3.517494 51.802279 5.567268 12.611828 -29.973038 0.000000 -0.000000 0.000000 -7.585722 -4.469183 -20.936565 4.381264 -0.265885 53.743555 -1.458277 -10.929762 -30.421169 0.000000 -0.000000 0.000000 -2.319388 1.318224 17.403476 0.970830 -4.019018 -3.812053 1.111614 2.979406 -0.949517 -2.418393 0.671480 -0.084092 -1.594087 1.862131 5.477741 -7.892692 -17.613417 -11.578564 -15.038958 -37.449602 0.325163 19.123562 -49.646664 0.261304 38.418070 -22.865762 7.695458 12.746727 24.770592 -4.362581 10.311362 29.142962 -8.706728 -25.084838 58.002402 -8.650040 -37.238976 25.450768 5.856254 
-0.814449 0.761767 0.886241 87.410009 -1.600929 83.233883 8.378210 1.359542 -21.559549 -17.120831 -3.555523 51.715707 5.542433 12.530745 -30.063912 0.000000 -0.000000 0.000000 -7.615727 -4.390576 -20.973861 4.307149 -0.324391 53.778624 -1.435420 -10.907206 -30.403549 0.000000 -0.000000 0.000000 -2.353287 1.266706 17.498091 0.950620 -3.970928 -4.069785 1.119780 2.942544 -0.827430 -2.361939 0.794502 -0.001490 -1.543767 1.844264 5.422580 -7.815996 -17.528152 -11.610095 -15.296930 -37.461071 0.382561 19.310524 -49.638812 0.181384 38.987067 -23.265656 7.467173 12.655668 24.679657 -4.423021 10.555326 29.214416 -8.687904 -24.931158 57.996154 -8.458299 -37.517579 25.539215 5.654593 
-0.814595 0.762102 0.886308 87.456673 -1.556991 83.216631 8.402135 1.451578 -21.597013 -17.135734 -3.577931 51.797730 5.498898 12.459618 -30.038172 0.000000 -0.000000 0.000000 -7.595562 -4.396783 -20.938821 4.244598 -0.341781 53.745351 -1.428795 -10.893335 -30.372068 0.000000 -0.000000 0.000000 -2.285086 1.236412 17.578618 0.951104 -3.923252 -4.207037 1.146335 2.908538 -0.774231 -2.403597 0.824407 -0.110779 -1.545223 1.766566 5.545690 -7.925718 -17.571044 -11.556056 -15.310276 -37.431142 0.380112 19.510116 -49.626770 0.080026 39.062668 -23.758019 7.217770 12.659786 24.664534 -4.362887 10.584077 29.158912 -8.789779 -25.066340 58.017540 -8.649644 -37.621366 25.746363 5.662616 
-0.814794 0.762466 0.886459 87.505199 -1.532993 83.141122 8.400586 1.428768 -21.560264 -17.122778 -3.581041 51.815810 5.418109 12.302055 -30.010411 0.000000 -0.000000 0.000000 -7.602668 -4.371985 -20.828683 4.202264 -0.368480 53.686722 -1.417736 -10.808302 -30.357961 0.000000 -0.000000 0.000000 -2.256161 1.207630 17.620121 0.958735 -3.939267 -4.086381 1.162530 2.901512 -0.849459 -2.477941 0.750262 -0.137658 -1.544380 1.662800 5.574285 -8.013327 -17.663076 -11.458063 -15.213765 -37.219373 0.446373 19.913862 -49.839718 -0.288278 40.349289 -24.638388 5.856824 12.710867 24.778733 -4.331990 10.473337 29.107139 -8.781595 -25.034854 57.811751 -8.680010 -38.538212 26.254021 5.267196 
-0.815061 0.762902 0.886653 87.583419 -1.538080 83.132187 8.386012 1.480685 -21.576391 -17.121833 -3.552873 51.774622 5.473127 12.116337 -30.074004 0.000000 -0.000000 0.000000 -7.664305 -4.384188 -20.806706 4.125625 -0.455188 53.642134 -1.402565 -10.755256 -30.324299 0.000000 -0.000000 0.000000 -2.225359 1.142336 17.599918 0.940193 -3.954831 -4.015502 1.138272 2.874037 -0.898132 -2.449820 0.850233 -0.171076 -1.591857 1.641963 5.533796 -7.948503 -17.655127 -11.439103 -15.349918 -37.047142 0.553777 20.306533 -50.017682 -0.599102 40.713927 -25.068983 5.153119 12.710712 24.822426 -4.333681 10.610095 29.121009 -8.756534 -25.192893 57.676871 -8.881579 -38.596270 26.509086 5.180046 
-0.815238 0.763265 0.887029 87.547602 -1.572459 83.167246 8.343305 1.483200 -21.583493 -17.102499 -3.448301 51.693158 5.449059 12.078797 -29.970556 0.000000 -0.000000 0.000000 -7.668551 -4.376121 -20.853087 4.077558 -0.368079 53.607181 -1.439794 -10.794698 -30.245764 0.000000 -0.000000 0.000000 -2.262401 1.218076 17.621766 0.869575 -3.875724 -4.239673 1.148525 2.928692 -0.892116 -2.329843 0.916514 -0.021491 -1.470550 1.580217 5.573146 -8.339585 -17.821409 -11.648973 -15.224115 -37.143918 0.651939 19.694709 -49.890567 -0.342927 42.636384 -25.565809 5.325965 12.992907 24.806710 -4.341716 10.571407 28.901466 -8.806607 -24.789274 57.616755 -8.817459 -39.688145 26.831127 4.975227 
-0.815374 0.763819 0.887178 87.548951 -1.586472 83.187155 8.263727 1.397837 -21.614643 -17.040569 -3.418785 51.670628 5.406253 12.122846 -29.915993 0.000000 -0.000000 0.000000 -7.682057 -4.343625 -20.866223 4.034213 -0.327174 53.566669 -1.402052 -10.724770 -30.296430 0.000000 -0.000000 0.000000 -2.266379 1.268328 17.564223 0.865998 -3.891739 -4.248522 1.161282 2.885114 -0.934952 -2.428461 0.726580 -0.046967 -1.381350 1.596187 5.520347 -8.527193 -17.894007 -11.405990 -15.154123 -36.950417 0.466854 20.216180 -50.047264 -1.103128 42.738549 -25.521988 5.229926 13.330332 24.947115 -3.999529 10.412862 28.918638 -9.072337 -24.940796 57.407842 -9.068580 -39.810893 27.079644 5.325015 
-0.815617 0.764271 0.887325 87.567322 -1.617622 83.170379 8.161075 1.311809 -21.586301 -17.028639 -3.437796 51.581820 5.451600 12.125414 -29.883340 0.000000 -0.000000 0.000000 -7.749532 -4.339710 -20.834921 3.959946 -0.349769 53.485972 -1.433356 -10.708154 -30.161416 0.000000 -0.000000 0.000000 -2.342302 1.296812 17.516827 0.917339 -3.873372 -4.127094 1.170062 2.883388 -0.937132 -2.375100 0.673551 -0.286491 -1.482682 1.621912 5.532626 -8.562994 -17.779864 -11.456564 -15.385828 -37.065119 0.475509 20.566822 -49.949528 -1.664977 43.079307 -25.594717 5.125697 13.351901 24.849303 -4.203782 10.575516 29.006358 -8.901677 -25.005828 57.332614 -9.218172 -39.925845 27.076663 5.411507 
-0.816008 0.764537 0.887514 87.538606 -1.618031 83.196957 8.142069 1.293978 -21.649423 -16.957488 -3.356125 51.578696 5.498133 12.156910 -29.840925 0.000000 -0.000000 0.000000 -7.740981 -4.376647 -20.890304 3.942340 -0.295052 53.466251 -1.472911 -10.715482 -30.169521 0.000000 -0.000000 0.000000 -2.359534 1.337646 17.464569 0.908354 -3.844866 -4.134664 1.183505 2.921989 -0.888730 -2.284365 0.675243 -0.379151 -1.565457 1.563674 5.555480 -8.657321 -17.843901 -11.595355 -15.674363 -37.129793 0.541405 20.926527 -49.603932 -2.115392 43.094595 -25.526508 4.850356 13.352198 24.878528 -4.348958 10.798170 28.871695 -8.672514 -25.422287 57.340709 -9.473678 -39.957109 26.944548 5.228287 
-0.816092 0.764845 0.887813 87.585231 -1.588281 83.216787 8.106853 1.320030 -21.660788 -16.892841 -3.403151 51.528628 5.542854 12.113391 -29.802737 0.000000 -0.000000 0.000000 -7.738796 -4.433738 -20.862331 3.893933 -0.318585 53.340897 -1.500027 -10.632515 -30.095898 0.000000 -0.000000 0.000000 -2.302940 1.248964 17.500510 0.853134 -3.849836 -4.128155 1.141309 2.996725 -1.064807 -2.257651 0.620612 -0.333881 -1.595397 1.470969 5.724434 -9.008798 -17.833248 -11.549214 -15.651432 -37.209663 0.475439 20.981620 -49.444270 -2.337755 42.849006 -25.862789 4.460244 13.460435 24.837340 -4.231117 10.973239 28.825586 -8.622233 -25.722665 57.369009 -9.703992 -39.945090 26.992313 5.119353 
